IKResults
version=1
nRows=6
nColumns=67
inDegrees=yes

Units are S.I. units (second, meters, Newtons, ...)
Angles are in degrees.

endheader
time	pelvis_tilt	pelvis_list	pelvis_rotation	pelvis_tx	pelvis_ty	pelvis_tz	hip_flexion_r	hip_adduction_r	hip_rotation_r	knee_angle_r	knee_rot_r	knee_adduc_r	ankle_angle_r	ankle_rot_r	ankle_add_r	subtalar_angle_r	mtp_angle_r	mtp_rot_r	mtp_add_r	hip_flexion_l	hip_adduction_l	hip_rotation_l	knee_angle_l	knee_rot_l	knee_adduc_l	ankle_angle_l	ankle_rot_l	ankle_add_l	subtalar_angle_l	mtp_angle_l	mtp_rot_l	mtp_add_l	lumbar_extension	lumbar_bending	lumbar_rotation	neck_flexion	neck_lateral_bending	neck_rotation	arm_flex_r	arm_add_r	arm_rot_r	elbow_flex_r	elbow_rot_r	elbow_add_r	pro_sup_r	wrist_flex_r	wrist_adduc_r	wrist_rot_r	wrist_dev_r	hand_finger_flex_r	hand_finger_adduc_r	hand_finger_rot_r	arm_flex_l	arm_add_l	arm_rot_l	elbow_flex_l	elbow_rot_l	elbow_add_l	pro_sup_l	wrist_flex_l	wrist_adduc_l	wrist_rot_l	wrist_dev_l	hand_finger_flex_l	hand_finger_adduc_l	hand_finger_rot_l
      0.00000000	     13.55629191	     10.09800740	     -0.00366375	     -3.03219769	      0.75877656	      0.78696874	     13.73529907	     -9.81731280	      2.82464584	    -25.10627754	     -5.00000000	      3.73778285	      7.31585285	     -4.83378253	      3.23060463	     -2.21035423	      2.19006378	     -0.12869459	      1.00783484	    -24.64647840	     15.83115145	      4.27349070	     -5.33099027	      5.00000000	      3.23464641	     10.44279779	     -3.14196613	      1.16030239	      0.87976755	      2.71515604	     -0.24637115	     -1.16271984	    -29.67999631	    -12.33208180	    -15.11868932	      0.00000000	      0.00000000	      0.00000000	      0.00000000	      0.00000000	      0.00000000	      0.00000000	      0.00000000	      0.00000000	     -0.00042092	      0.00000000	      0.00000000	      0.00000000	      0.00000000	      0.00000000	      0.00000000	      0.00000000	      0.00000000	      0.00000000	      0.00000000	      0.00000000	      0.00000000	      0.00000000	      0.00000000	      0.00000000	      0.00000000	      0.00000000	      0.00000000	      0.00000000	      0.00000000	      0.00000000
      0.00500000	     13.40141457	     10.43570577	      0.03673413	     -3.02544764	      0.75716799	      0.78696103	     14.01438606	     -9.87532490	      3.29045121	    -23.02325790	     -5.00000000	      3.33213869	      7.37328586	     -4.63915260	      3.30588369	     -2.05354541	      2.25635986	     -0.11787127	      1.03494403	    -25.02349219	     16.04169975	      4.28825963	     -5.46775307	      5.00000000	      3.07518148	     10.74175126	     -3.16126456	      1.15530659	      0.90711095	      2.79801015	     -0.25173281	     -1.19846465	    -29.68936015	    -12.75845035	    -15.39433417	      0.00000000	      0.00000000	      0.00000000	      0.00000000	      0.00000000	      0.00000000	      0.00000000	      0.00000000	      0.00000000	     -0.00042092	      0.00000000	      0.00000000	      0.00000000	      0.00000000	      0.00000000	      0.00000000	      0.00000000	      0.00000000	      0.00000000	      0.00000000	      0.00000000	      0.00000000	      0.00000000	      0.00000000	      0.00000000	      0.00000000	      0.00000000	      0.00000000	      0.00000000	      0.00000000	      0.00000000
      0.01000000	     13.25594286	     10.81626876	      0.10156917	     -3.01867578	      0.75550518	      0.78687472	     14.21089062	    -10.00329162	      3.78996517	    -20.84324951	     -5.00000000	      2.92397533	      7.32250979	     -4.41866785	      3.36533286	     -1.87617268	      2.32681052	     -0.10690396	      1.06386363	    -25.43725157	     16.28264662	      4.37090628	     -5.58439107	      5.00000000	      2.91476479	     11.07591471	     -3.23288000	      1.14136942	      0.96917231	      2.88817045	     -0.25849837	     -1.23713920	    -29.70421638	    -13.16997097	    -15.80324029	      0.00000000	      0.00000000	      0.00000000	      0.00000000	      0.00000000	      0.00000000	      0.00000000	      0.00000000	      0.00000000	     -0.00042092	      0.00000000	      0.00000000	      0.00000000	      0.00000000	      0.00000000	      0.00000000	      0.00000000	      0.00000000	      0.00000000	      0.00000000	      0.00000000	      0.00000000	      0.00000000	      0.00000000	      0.00000000	      0.00000000	      0.00000000	      0.00000000	      0.00000000	      0.00000000	      0.00000000
      0.01500000	     13.13170408	     11.21657427	      0.19883467	     -3.01196264	      0.75383628	      0.78675078	     14.32375775	    -10.18032042	      4.26932305	    -18.64469491	     -5.00000000	      2.51677711	      7.16130257	     -4.21909108	      3.40552293	     -1.70792022	      2.40316682	     -0.09723085	      1.09569253	    -25.87990793	     16.53776648	      4.50140189	     -5.70409826	      5.00000000	      2.78397762	     11.40702486	     -3.32499582	      1.13114465	      1.04947490	      2.98725285	     -0.26632763	     -1.27953663	    -29.73880893	    -13.56500970	    -16.28548266	      0.00000000	      0.00000000	      0.00000000	      0.00000000	      0.00000000	      0.00000000	      0.00000000	      0.00000000	      0.00000000	     -0.00042092	      0.00000000	      0.00000000	      0.00000000	      0.00000000	      0.00000000	      0.00000000	      0.00000000	      0.00000000	      0.00000000	      0.00000000	      0.00000000	      0.00000000	      0.00000000	      0.00000000	      0.00000000	      0.00000000	      0.00000000	      0.00000000	      0.00000000	      0.00000000	      0.00000000
      0.02000000	     13.27623460	     11.60594687	      0.57585519	     -3.00551661	      0.75255062	      0.78621665	     13.97219957	    -10.55702953	      4.52686666	    -16.34709255	     -5.00000000	      2.33288864	      6.05805053	     -4.25825731	      3.45518652	     -1.53506495	      2.72601103	     -0.09407042	      1.23863691	    -26.57118626	     16.69159953	      4.95096974	     -5.96663599	      5.00000000	      2.74088766	     11.84082614	     -3.41456272	      1.26215254	      1.29530955	      3.37991744	     -0.29525362	     -1.44792394	    -30.21757848	    -13.70489713	    -17.44510414	      0.00000000	      0.00000000	      0.00000000	      0.00000000	      0.00000000	      0.00000000	      0.00000000	      0.00000000	      0.00000000	     -0.00042092	      0.00000000	      0.00000000	      0.00000000	      0.00000000	      0.00000000	      0.00000000	      0.00000000	      0.00000000	      0.00000000	      0.00000000	      0.00000000	      0.00000000	      0.00000000	      0.00000000	      0.00000000	      0.00000000	      0.00000000	      0.00000000	      0.00000000	      0.00000000	      0.00000000
      0.02500000	     13.14172160	     11.95195805	      0.60910654	     -2.99877168	      0.75083957	      0.78614816	     14.04402006	    -10.63138338	      4.82996866	    -14.27162338	     -5.00000000	      1.76238567	      6.08168061	     -4.20304244	      3.52760801	     -1.45588338	      2.81057559	     -0.08994716	      1.27529771	    -27.05845435	     16.92125138	      5.09651420	     -5.97650862	      5.00000000	      2.63760340	     12.06658636	     -3.42907703	      1.26525687	      1.34584485	      3.47529774	     -0.30155210	     -1.48893830	    -30.15906868	    -14.13179417	    -17.56613096	      0.00000000	      0.00000000	      0.00000000	      0.00000000	      0.00000000	      0.00000000	      0.00000000	      0.00000000	      0.00000000	     -0.00042092	      0.00000000	      0.00000000	      0.00000000	      0.00000000	      0.00000000	      0.00000000	      0.00000000	      0.00000000	      0.00000000	      0.00000000	      0.00000000	      0.00000000	      0.00000000	      0.00000000	      0.00000000	      0.00000000	      0.00000000	      0.00000000	      0.00000000	      0.00000000	      0.00000000
